<svg xmlns="http://www.w3.org/2000/svg" xmlns:xlink="http://www.w3.org/1999/xlink" width="500" zoomAndPan="magnify" viewBox="0 0 375 374.999991" height="500" preserveAspectRatio="xMidYMid meet" version="1.0"><defs><clipPath id="id1"><path d="M 149 146 L 236.1875 146 L 236.1875 281 L 149 281 Z M 149 146 " clip-rule="nonzero"/></clipPath></defs><path fill="#000000" d="M 220.675781 150 L 220.675781 125.164062 C 220.675781 109.683594 208.140625 97.082031 192.753906 97.082031 C 177.363281 97.082031 164.835938 109.679688 164.835938 125.164062 L 164.835938 150 Z M 220.675781 150 " fill-opacity="1" fill-rule="nonzero"/><path fill="#000000" d="M 164.835938 156.21875 L 164.835938 181.054688 C 164.835938 196.535156 177.363281 209.136719 192.753906 209.136719 C 208.140625 209.136719 220.675781 196.542969 220.675781 181.054688 L 220.675781 156.21875 Z M 164.835938 156.21875 " fill-opacity="1" fill-rule="nonzero"/><g clip-path="url(#id1)"><path fill="#000000" d="M 233.085938 274.394531 L 195.859375 274.394531 L 195.859375 227.335938 C 216.65625 225.757812 233.085938 208.433594 233.085938 187.320312 L 233.085938 150 C 233.085938 148.285156 231.6875 146.890625 229.984375 146.890625 C 228.277344 146.890625 226.878906 148.285156 226.878906 150 L 226.878906 187.320312 C 226.878906 206.039062 211.566406 221.273438 192.753906 221.273438 C 173.941406 221.273438 158.628906 206.039062 158.628906 187.320312 L 158.628906 150 C 158.628906 148.285156 157.242188 146.890625 155.527344 146.890625 C 153.816406 146.890625 152.425781 148.285156 152.425781 150 L 152.425781 187.320312 C 152.425781 208.433594 168.863281 225.75 189.652344 227.335938 L 189.652344 274.394531 L 152.425781 274.394531 C 150.714844 274.394531 149.324219 275.792969 149.324219 277.503906 C 149.324219 279.214844 150.714844 280.613281 152.425781 280.613281 L 233.085938 280.613281 C 234.792969 280.613281 236.1875 279.214844 236.1875 277.503906 C 236.1875 275.792969 234.792969 274.394531 233.085938 274.394531 Z M 233.085938 274.394531 " fill-opacity="1" fill-rule="nonzero"/></g></svg>